<svg xmlns="http://www.w3.org/2000/svg" xml:space="preserve" fill-rule="evenodd" stroke-linejoin="round" stroke-miterlimit="2" clip-rule="evenodd" viewBox="0 0 512 512"><path d="M256 511.995c-68.571 0-132.571-23.486-182.857-70.458C22.858 389.867 0 328.803 0 258.344 0 187.885 22.858 126.82 73.143 75.15 123.43 23.481 187.43-.005 256-.005c68.572 0 128 23.486 178.286 75.156s77.715 112.734 77.715 183.193c0 70.459-27.429 131.523-77.715 183.193-50.285 46.972-109.714 70.458-178.286 70.458Z"/><path fill="#fff" fill-rule="nonzero" d="M124.276 425.015V86.985h49.363v152.918L315.826 86.985h61.168L237.489 236.684l150.236 188.331h-62.24L202.075 270.487 173.64 301.07v123.944h-49.363Z"/></svg>